<svg width="24" height="24" viewBox="0 0 24 24" fill="none" xmlns="http://www.w3.org/2000/svg">
<g id="Frame">
<path id="Vector" d="M23.5385 0.692383H1.38462V22.8462H23.5385V0.692383Z" fill="white" fill-opacity="0.01"/>
<path id="Vector_2" d="M23.5385 0.692383H1.38462V22.8462H23.5385V0.692383Z" fill="white" fill-opacity="0.01"/>
<path id="Vector_3" d="M20.6675 10.2028C20.7842 9.42014 20.7459 8.61887 20.5527 7.84842C20.2975 6.83064 19.7719 5.86676 18.976 5.07084C18.1801 4.27492 17.2162 3.74936 16.1985 3.49415C15.428 3.30096 14.6267 3.2627 13.844 3.37937" stroke="#1E70FF" stroke-width="0.923077" stroke-linecap="round" stroke-linejoin="round"/>
<path id="Vector_4" d="M17.1645 9.83206C17.2895 8.99363 17.0292 8.10886 16.3838 7.46345C15.7384 6.81803 14.8536 6.55777 14.0152 6.68276" stroke="#1E70FF" stroke-width="0.923077" stroke-linecap="round" stroke-linejoin="round"/>
<path id="Vector_5" d="M8.01956 4.75098C8.35486 4.75098 8.66382 4.93285 8.8266 5.22602L9.95571 7.25993C10.1035 7.52624 10.1105 7.84835 9.97426 8.12079L8.88651 10.2963C8.88651 10.2963 9.20174 11.917 10.521 13.2363C11.8403 14.5555 13.4555 14.8653 13.4555 14.8653L15.6307 13.7777C15.9033 13.6414 16.2257 13.6485 16.4921 13.7966L18.5317 14.9306C18.8247 15.0934 19.0063 15.4022 19.0063 15.7373V18.0789C19.0063 19.2714 17.8986 20.1327 16.7688 19.7514C14.4482 18.9684 10.846 17.4776 8.56288 15.1944C6.27969 12.9112 4.78883 9.30907 4.00583 6.9885C3.62458 5.85861 4.48586 4.75098 5.67831 4.75098H8.01956Z" fill="#1E70FF" stroke="#1E70FF" stroke-width="0.923077" stroke-linejoin="round"/>
</g>
</svg>
