<svg width="123" height="28" viewBox="0 0 123 28" fill="none" xmlns="http://www.w3.org/2000/svg">
<g id="logo" clip-path="url(#clip0_34_690)">
<g id="&#229;&#155;&#190;&#229;&#177;&#130; 2">
<g id="&#229;&#155;&#190;&#229;&#177;&#130; 1">
<path id="Vector" d="M22.1667 0H27.0667C27.3143 0 27.5517 0.0983331 27.7267 0.273367C27.9017 0.448401 28.0001 0.685798 28.0001 0.933333V27.0667C28.0001 27.3142 27.9017 27.5516 27.7267 27.7266C27.5517 27.9017 27.3143 28 27.0667 28H22.1667V0Z" fill="#1E70FF"/>
<path id="Vector_2" d="M19.8333 18.667C17.358 18.667 14.984 19.6503 13.2337 21.4007C11.4833 23.151 10.5 25.525 10.5 28.0003H19.8333V18.667Z" fill="#FFA617"/>
<path id="Vector_3" d="M14 0H0.933333C0.685798 0 0.448401 0.0983331 0.273367 0.273367C0.0983331 0.448401 0 0.685798 0 0.933333L0 28L14 0Z" fill="#1E70FF"/>
<path id="Vector_4" d="M16.3333 0L2.33325 28H8.16658C8.16658 24.9058 9.39575 21.9383 11.5837 19.7504C13.7716 17.5625 16.7391 16.3333 19.8333 16.3333V0H16.3333Z" fill="#1E70FF"/>
<path id="Vector_5" d="M58.1864 26.9089C52.8851 25.9756 49.1716 24.9022 46.3868 23.5839C43.2368 25.1111 39.3774 26.2497 34.5859 27.1784L34.2558 26.2194C38.7194 25.4109 42.3128 24.3924 45.3076 23.0694C42.6721 21.6612 40.9909 19.9836 39.5909 17.9174H38.9026C37.1946 20.4327 34.9488 22.7101 31.9831 25.1052L31.4441 24.2676C35.6079 21.0009 38.3636 17.7074 40.0098 13.7547H32.8184V12.8914H40.3668C40.6952 11.9482 40.9748 10.9887 41.2044 10.0167L42.1938 10.1661C42.002 11.0924 41.7423 12.0033 41.4168 12.8914H57.3779V13.7664H41.0854C40.6307 14.8952 40.0897 15.9873 39.4673 17.0331H53.7834V17.9011C52.1361 19.9684 50.0093 21.6752 47.4029 23.0834C50.0688 24.2501 53.6038 25.1192 58.4256 25.9277L58.1864 26.9089ZM34.6501 11.6337H33.6316V7.88991H49.6208C50.7291 6.69174 52.6156 4.50657 53.4848 3.15791L54.2933 3.66657C53.5151 4.83324 51.9868 6.69174 50.8784 7.88991H56.3898V11.6664H55.3713V8.78824H34.6501V11.6337ZM55.8508 1.69024C49.5018 2.55824 40.2501 3.24774 33.9571 3.48691L33.9268 2.55357C40.2501 2.31907 49.5018 1.69024 55.7014 0.816406L55.8508 1.69024ZM38.5993 7.46641C37.8503 6.35924 36.7419 4.89157 35.8739 3.96641L36.6229 3.48691C37.6343 4.57712 38.5555 5.74763 39.3774 6.98691L38.5993 7.46641ZM40.6993 17.9197C42.0468 19.8062 43.7244 21.2739 46.3296 22.5619C48.9359 21.2786 50.8796 19.8062 52.4394 17.9197H40.6993ZM45.9668 7.46641C45.2481 6.26941 44.1106 4.65124 43.3908 3.69341L44.1701 3.15441C44.9483 4.11224 46.0566 5.75957 46.7753 6.95774L45.9668 7.46641Z" fill="black"/>
<path id="Vector_6" d="M76.1833 11.702C74.2326 15.7935 70.077 21.5475 67.3598 24.2647C69.6931 24.1375 81.7775 23.5297 85.0056 23.4013C82.9605 20.781 80.626 17.8398 79.289 16.2415L80.1196 15.5695C82.0691 17.7757 86.2575 23.0187 88.4951 26.1185L87.6003 26.8862L85.8351 24.4887C84.1085 24.617 68.7003 25.352 66.9421 25.352C66.3355 25.3835 65.7918 25.4792 64.9285 25.639L64.6403 24.5202C65.632 24.2647 65.8875 24.1048 66.2736 23.7537C68.957 21.0703 72.8583 15.762 74.907 11.702H62.8833V10.5832H90.118V11.702H76.1833ZM87.2433 3.13518H65.7591V2.04785H87.241L87.2433 3.13518Z" fill="black"/>
<path id="Vector_7" d="M122.277 26.1951L121.958 27.2183C117.226 27.4423 112.495 27.5065 107.795 27.4096C103.448 27.314 101.306 26.7388 98.7175 23.2225L94.3379 27.9218L93.7627 26.9301L98.2054 22.1993V12.5451H93.954V11.4951H99.26V22.1398C101.722 25.6888 103.64 26.2955 107.924 26.3923C112.687 26.4833 117.483 26.4191 122.277 26.1951ZM99.7395 7.94263C98.8167 6.43996 96.6397 3.24329 95.6165 2.06029L96.4157 1.32529C97.4389 2.60863 99.6439 5.70496 100.571 7.23913L99.7395 7.94263ZM107.316 13.5683H101.626V12.5451H111.088V6.69546H105.558C104.964 8.10665 104.292 9.48352 103.544 10.8196L102.617 10.3401C104.167 7.55262 105.381 4.59068 106.233 1.51663L107.255 1.77213C106.895 3.08317 106.467 4.37449 105.972 5.64079H111.087V0.078125L112.11 0.142292V5.64079H119.879V6.69079H112.117V12.5405H121.164V13.5636H113.966V20.3723C113.966 22.0056 114.316 22.323 115.82 22.4186C116.364 22.4503 116.909 22.4503 117.453 22.4186C119.147 22.323 119.244 22.099 119.499 20.405C119.638 19.4626 119.713 18.5119 119.723 17.5595L120.682 17.8791C120.671 18.8103 120.596 19.7395 120.458 20.6605C120.108 22.9296 119.819 23.3438 117.581 23.4418C116.909 23.4737 116.238 23.4737 115.568 23.4418C113.681 23.3461 112.978 22.8025 112.978 20.5321V13.5683H108.339V14.4666C108.243 19.2301 107.406 21.0525 102.681 24.3133L102.01 23.45C106.485 20.5088 107.156 19.0061 107.316 14.4666V13.5683Z" fill="black"/>
</g>
</g>
</g>
<defs>
<clipPath id="clip0_34_690">
<rect width="122.277" height="28" fill="white"/>
</clipPath>
</defs>
</svg>
